<svg xmlns="http://www.w3.org/2000/svg" viewBox="0 0 750 500"><g id="freepik--background-complete--inject-20"><g id="freepik--aiZGp2--inject-20"><path d="M545.92,91.32a67.77,67.77,0,0,0-4.61,21.06H522.65v-.52c.05-.48.11-1,.15-1.43a50.81,50.81,0,0,1,1.24-7.35,56.59,56.59,0,0,1,4.14-11.5.42.42,0,0,1,.45-.27h17.29Z" style="fill:#ebebeb"></path><path d="M545.35,138.37H528.21a.4.4,0,0,1-.42-.27,52.65,52.65,0,0,1-4.25-13,53.23,53.23,0,0,1-.84-6.56,2.25,2.25,0,0,0-.05-.22v-.51l.28,0H541c.34,0,.32,0,.35.34.11,1.5.21,3,.35,4.49a58,58,0,0,0,1.15,7.06,62.88,62.88,0,0,0,2.44,8.39C545.3,138.18,545.32,138.26,545.35,138.37Z" style="fill:#ebebeb"></path><path d="M617.44,143.8c-.06.1-.1.18-.15.25a52,52,0,0,1-4.86,6.3,47.61,47.61,0,0,1-7.12,6.56,50.1,50.1,0,0,1-8.11,5,51.44,51.44,0,0,1-8.56,3.33,53,53,0,0,1-7.14,1.52c-.24,0-.47.08-.7.12h-.42l-.4-.25.46-.33A54.85,54.85,0,0,0,594,153.22a62.56,62.56,0,0,0,5.52-9.16.39.39,0,0,1,.42-.27h17.54Z" style="fill:#ebebeb"></path><path d="M600.29,112.37H576.21v-21H595a.35.35,0,0,1,.38.25,59.13,59.13,0,0,1,3.83,12.33,62.53,62.53,0,0,1,.92,6.67C600.19,111.16,600.24,111.75,600.29,112.37Z" style="fill:#ebebeb"></path><path d="M600.15,118c0,.5,0,1-.08,1.48-.1,1.18-.18,2.35-.35,3.52-.22,1.61-.47,3.22-.79,4.82a57.65,57.65,0,0,1-3.12,10.27.41.41,0,0,1-.44.31h-19.3V118Z" style="fill:#ebebeb"></path><path d="M570.79,91.45v21.07H547.27c0-.53.05-1.06.11-1.58.12-1.17.21-2.36.4-3.53.29-1.78.6-3.57,1-5.33a54,54,0,0,1,3.4-10.37.36.36,0,0,1,.4-.26h18.23Z" style="fill:#ebebeb"></path><path d="M570.81,118.26q0,9.9,0,19.81v.3H552a.38.38,0,0,1-.41-.27,53.46,53.46,0,0,1-3.2-10.62c-.36-1.87-.63-3.76-.86-5.65-.16-1.23-.19-2.48-.28-3.73,0,0,0-.06,0-.13h23.23C570.76,118,570.81,118,570.81,118.26Z" style="fill:#ebebeb"></path><path d="M625.82,112.52H606.09a68.45,68.45,0,0,0-4.6-21.2h18.39a.4.4,0,0,1,.43.26,51.79,51.79,0,0,1,4.55,13.19,57.39,57.39,0,0,1,1,7.4C625.83,112.27,625.82,112.38,625.82,112.52Z" style="fill:#ebebeb"></path><path d="M625.84,117.82c0,.48,0,.93-.07,1.38a52.91,52.91,0,0,1-.65,5.32,51.63,51.63,0,0,1-3.62,11.84c-.27.61-.57,1.22-.84,1.83a.28.28,0,0,1-.29.18H602.24l-.19,0,.64-1.85A64.51,64.51,0,0,0,606,119.73c0-.56.07-1.13.1-1.7,0-.15,0-.22.2-.21a1.2,1.2,0,0,0,.19,0Z" style="fill:#ebebeb"></path><path d="M616.9,86a.2.2,0,0,0,0,.08H599.35a.39.39,0,0,1-.41-.24,59.32,59.32,0,0,0-8.57-12.69A47.12,47.12,0,0,0,583.8,67c-1.18-.91-2.4-1.76-3.6-2.63l-.2-.15.24-.16c0-.11-.07-.22-.12-.38A51.62,51.62,0,0,1,616.9,86Z" style="fill:#ebebeb"></path><path d="M567.44,166.67a1.76,1.76,0,0,1-.5.08,46.47,46.47,0,0,1-5.62-1.09,50.47,50.47,0,0,1-10-3.71,51.18,51.18,0,0,1-10.2-6.7,48.13,48.13,0,0,1-6.14-6.14,51.34,51.34,0,0,1-3.83-5.3s0-.09-.08-.16H547.4a.4.4,0,0,1,.41.26,62.11,62.11,0,0,0,5.9,9.63,61.3,61.3,0,0,0,6.92,7.66,54.44,54.44,0,0,0,6.66,5.36S567.35,166.59,567.44,166.67Z" style="fill:#ebebeb"></path><path d="M567.23,64.24c-.73.53-1.6,1.14-2.43,1.78A60.77,60.77,0,0,0,557,73.27a54.54,54.54,0,0,0-8.17,11.65c-.14.27-.26.55-.41.8a.4.4,0,0,1-.25.16c-.29,0-.59,0-.88,0H531.59c8.75-12.36,20.5-19.79,35.46-22.06L567,64Z" style="fill:#ebebeb"></path><path d="M593.11,143.81a56.23,56.23,0,0,1-8,10.76,50.08,50.08,0,0,1-9.08,7.71V143.81Z" style="fill:#ebebeb"></path><path d="M570.78,143.82v18.11a52.46,52.46,0,0,1-16.34-18.11Z" style="fill:#ebebeb"></path><path d="M592.57,85.87H576.22V68.62a50,50,0,0,1,9.17,7.68A57.64,57.64,0,0,1,592.57,85.87Z" style="fill:#ebebeb"></path><path d="M570.78,69.16V86H555.09A49.64,49.64,0,0,1,570.78,69.16Z" style="fill:#ebebeb"></path></g><path d="M276.69,82.25s-6.86,55-18.15,67.34c-13.55,14.84-23.38,12.68-28.85,20.33a0,0,0,0,0,0,0c-5.47-7.66-15.3-5.48-28.86-20.34-11.28-12.37-18.14-67.34-18.14-67.34,29.74-14.44,47-30.61,47-30.61h0C230.22,52.14,247.42,68.05,276.69,82.25Z" style="fill:#dbdbdb"></path><path d="M276.69,82.25s-6.86,55-18.15,67.34c-13.55,14.84-23.38,12.68-28.85,20.33V51.65C230.22,52.14,247.42,68.05,276.69,82.25Z" style="fill:#ebebeb"></path><path d="M269.4,86.68s-5.8,46.44-15.33,56.89c-11.46,12.56-19.77,10.71-24.39,17.18-4.62-6.47-12.93-4.62-24.38-17.18C195.76,133.12,190,86.68,190,86.68c25.11-12.2,39.7-25.87,39.7-25.87S244.28,74.48,269.4,86.68Z" style="fill:#dbdbdb"></path><path d="M230,61.09v99.27l-.29.39c-4.62-6.47-12.93-4.62-24.38-17.18C195.77,133.12,190,86.68,190,86.68c25.12-12.2,39.7-25.87,39.7-25.87Z" style="fill:#c7c7c7"></path><rect x="215.4" y="108.89" width="28.58" height="22.36" style="fill:#fff"></rect><path d="M241.12,104.38h-2.9v-2.64a8.53,8.53,0,0,0-17.05,0v11.58h-2.91V101.74a11.43,11.43,0,0,1,22.86,0Z" style="fill:#fff"></path><path d="M230.9,118.61l1.19,5.67H227l1.19-5.67a2.56,2.56,0,0,1-1.19-2.15,2.54,2.54,0,1,1,5.07,0A2.56,2.56,0,0,1,230.9,118.61Z" style="fill:#dbdbdb"></path><polygon points="149.92 365.15 52.74 365.15 48.82 287.84 153.84 287.84 149.92 365.15" style="fill:#dbdbdb"></polygon><path d="M60.34,296.39h82l-1.48,26.84H62.07Zm81,.95H61.36L63,322.28h77Z" style="fill:#c7c7c7"></path><path d="M62,329.88h77l-1.2,24.23H63.52Zm76,.95H63l1.4,22.33h72.43Z" style="fill:#c7c7c7"></path><path d="M93,306.25h14.91l-.83,6.47H93.87Zm13.83.95H94.12l.59,4.57h11.56Z" style="fill:#c7c7c7"></path><path d="M93,338.76h14.91l-.83,6.47H93.87Zm13.83.95H94.12l.59,4.57h11.56Z" style="fill:#c7c7c7"></path><polygon points="133.02 365.15 134.21 373.58 136.59 390.5 141.24 390.5 141.24 365.15 133.02 365.15" style="fill:#dbdbdb"></polygon><polygon points="133.02 365.15 134.21 373.58 141.24 373.58 141.24 365.15 133.02 365.15" style="fill:#c7c7c7"></polygon><polygon points="69.64 365.15 68.46 373.58 66.08 390.5 61.42 390.5 61.42 365.15 69.64 365.15" style="fill:#dbdbdb"></polygon><polygon points="69.64 365.15 68.46 373.58 61.42 373.58 61.42 365.15 69.64 365.15" style="fill:#c7c7c7"></polygon><path d="M682.37,304.22l-13.12.28-6.66.11c-2.23.05-4.47,0-6.7.06h-.44v-.45L655.39,293v-.5h.5l13.24.06c4.42,0,8.83.11,13.24.16h.28V293c0,1.9-.08,3.79-.13,5.66Zm0,0-.14-5.65c-.05-1.86-.11-3.7-.13-5.54l.27.28c-4.41.05-8.82.16-13.24.16l-13.24.06.5-.5,0,11.19-.45-.44c2.18,0,4.36,0,6.55.05L669,304Z" style="fill:#ebebeb"></path><rect x="641.12" y="307.14" width="26.48" height="11.19" style="fill:#ebebeb"></rect><path d="M697.14,318.33l-13.12.28-6.66.11c-2.23,0-4.47,0-6.7.06h-.44v-.45l-.06-11.19v-.5h.5l13.24.07c4.42,0,8.83.11,13.24.16h.28v.27c0,1.9-.09,3.79-.13,5.66Zm0,0-.14-5.65c0-1.86-.11-3.7-.13-5.54l.27.28c-4.41.05-8.82.16-13.24.16l-13.24.06.5-.5,0,11.19-.45-.44c2.19,0,4.36,0,6.55.05l6.58.12Z" style="fill:#ebebeb"></path><path d="M394.15,116.52,381,116.8l-6.66.11c-2.22,0-4.46,0-6.69.06h-.44v-.45l-.05-11.19v-.5h.5l13.24.06c4.41,0,8.83.12,13.24.17h.28v.27c0,1.9-.08,3.79-.13,5.65Zm0,0-.14-5.65c-.05-1.87-.11-3.71-.13-5.54l.27.27c-4.41.05-8.83.16-13.24.17l-13.24.06.5-.5-.06,11.19-.44-.45c2.18,0,4.36,0,6.54.06l6.58.11Z" style="fill:#ebebeb"></path><path d="M379.38,130.63l-13.13.28-6.66.11c-2.22,0-4.46,0-6.69,0h-.45v-.45l-.05-11.19v-.5h.5l13.24.06c4.41,0,8.82.12,13.24.17h.27v.27c0,1.9-.08,3.79-.13,5.65Zm0,0-.14-5.65c-.05-1.87-.12-3.71-.13-5.54l.27.27c-4.42.05-8.83.16-13.24.17l-13.24.06.5-.5-.06,11.19-.44-.45c2.18,0,4.36,0,6.54.06l6.58.11Z" style="fill:#ebebeb"></path><rect x="382.44" y="119.44" width="26.48" height="11.19" style="fill:#ebebeb"></rect><rect x="66.1" y="269.41" width="26.48" height="11.19" style="fill:#ebebeb"></rect><path d="M197,170.91l-13.13.28-6.66.11c-2.23,0-4.46,0-6.69.06h-.45v-.45L170,159.72v-.5h.51l13.24.06c4.41,0,8.82.12,13.24.17h.27v.27c0,1.9-.09,3.79-.13,5.65Zm0,0-.15-5.65c0-1.87-.11-3.71-.13-5.54l.28.27c-4.42.06-8.83.16-13.24.17l-13.24.06.49-.5-.05,11.19-.44-.44c2.18,0,4.35,0,6.54.05l6.58.11Z" style="fill:#ebebeb"></path><rect x="654.36" y="51.19" width="26.48" height="11.19" style="fill:#ebebeb"></rect><path d="M695.61,76.49l-13.12.28-6.66.11c-2.23.05-4.47,0-6.7.05h-.44v-.45l-.06-11.19v-.5h.5l13.24.06c4.42,0,8.83.12,13.24.17h.28v.27c0,1.9-.09,3.79-.14,5.65Zm0,0-.14-5.65c0-1.87-.11-3.71-.13-5.54l.27.27c-4.41.05-8.82.16-13.24.17l-13.24.06.5-.5,0,11.19-.45-.45c2.18,0,4.36,0,6.55.06l6.58.11Z" style="fill:#ebebeb"></path><path d="M79.34,62.39l-13.13.28-6.66.11c-2.22,0-4.46,0-6.69.06h-.45v-.45l0-11.19v-.5h.51l13.24.07c4.41,0,8.82.11,13.24.16h.27v.27c0,1.9-.09,3.79-.13,5.66Zm0,0-.15-5.65c0-1.87-.11-3.71-.13-5.54l.28.27c-4.42.06-8.83.16-13.24.17l-13.24.06.5-.5L53.3,62.39,52.86,62c2.18,0,4.35,0,6.54,0l6.58.11Z" style="fill:#ebebeb"></path></g><g id="freepik--Shadow--inject-20"><ellipse cx="158.5" cy="445.51" rx="110.68" ry="11.86" style="fill:#ebebeb"></ellipse></g><g id="freepik--Floor--inject-20"><polygon points="46.54 390.5 128.66 390.26 210.77 390.17 375 390 539.23 390.17 621.35 390.25 703.46 390.5 621.35 390.75 539.23 390.83 375 391 210.77 390.83 128.66 390.74 46.54 390.5" style="fill:#263238"></polygon></g><g id="freepik--Plant--inject-20"><path d="M244,310.54A64.36,64.36,0,0,0,242,322.19c.1.2.08.92,0,.72,0,.64-1,.52-1-.11,0-.41,0-.82,0-1.22-2.28-2.83-5.59-4.62-8.26-7.08a15.38,15.38,0,0,1-4.52-7.2c-2.22-7.64-.14-15.73-2.81-23.35-2.3-6.57-6.42-12.28-9.91-18.24-3.68-6.29-6.4-12.91-6.67-20.28-.22-5.65.46-13.17,4.76-17.4,4.56-4.49,10.21-1.12,13.7,2.88,10.12,11.61,14.8,26.29,16.69,41.29,1.05,8.31,2.13,16.67,1.88,25.05A67.58,67.58,0,0,1,244,310.54Z" style="fill:#92E3A9"></path><path d="M242,325.24a142.2,142.2,0,0,0-.28-23.53s0,0,0-.08c.13-6.36.64-12.7.39-19.07a113.59,113.59,0,0,0-2.8-20.44.07.07,0,0,0-.13,0,134.22,134.22,0,0,1,2.22,20c.12,3.6.1,7.19-.09,10.78-.06,1.17-.17,2.35-.25,3.53v0a125.78,125.78,0,0,0-18.92-50.07c-.14-.21-.5,0-.37.22a130.94,130.94,0,0,1,15.4,37.13c-4.87-9-12.22-16.43-17.67-25.09,0-.05-.11,0-.08.05,4.9,9.65,13,17.25,18.15,26.75.89,3.88,1.63,7.79,2.17,11.72A130.35,130.35,0,0,1,241,313.4c-3-5.54-6-10.84-8.46-16.7-.07-.15-.29,0-.24.11,2.07,6.09,4.84,12.64,8.72,17.84q0,5.78-.32,11.55c-.6,10.27-2.36,20.41-3.17,30.65a.24.24,0,0,0,.47,0A235.88,235.88,0,0,0,242,325.24Z" style="fill:#263238"></path><path d="M231.09,246c0-.08-.14,0-.11,0,1.88,5.19,2.94,10.45,4.29,15.76a.2.2,0,0,0,.39-.06C235.11,256.38,233.18,251,231.09,246Z" style="fill:#263238"></path><path d="M278.74,267.77a79.64,79.64,0,0,1-4.32,8.86c-3.37,6.14-6.9,11.76-7.54,18.9-.28,3.19-.38,6.4-1.36,9.47a28.31,28.31,0,0,1-3.77,7.41c-3.66,5.34-8.24,9.93-11.63,15.47a65,65,0,0,0-7.73,18.64c-.08.35-.65.26-.57-.1a.26.26,0,0,0,0-.08.1.1,0,0,1,0-.08c-.54-15.32.69-30.76,5.36-45.43a156.29,156.29,0,0,1,7.42-18.9c2.51-5.32,5.63-10.44,10-14.41,2.85-2.57,9-7.44,13.09-4.86C279.65,263.9,279.51,265.85,278.74,267.77Z" style="fill:#92E3A9"></path><path d="M263.34,302.49a125,125,0,0,1-8.9,12.8c-1.48,1.94-3,3.86-4.47,5.8-.7.91-1.48,1.82-2.12,2.81.4-1.61.8-3.23,1.21-4.84,2-7.74,3.87-15.54,6.82-23a156,156,0,0,1,10.63-20.85c.11-.17-.18-.3-.28-.13-3.24,5.32-6.53,10.64-9.25,16.25a85.36,85.36,0,0,0-3.92,9.64,148.69,148.69,0,0,1,5.22-20.6,0,0,0,0,0-.09,0,70.68,70.68,0,0,0-5.42,21.43v0q-1,3-1.84,6c-2.42,8.57-4.54,17.24-6.5,25.93a91.94,91.94,0,0,1,1.48-17,.1.1,0,0,0-.2,0,53.74,53.74,0,0,0-1.48,17.95q-1.11,5-2.17,9.93c-1.51,7.06-3.36,14.25-4.24,21.42a.14.14,0,0,0,.28,0c1.06-3.86,1.69-7.87,2.55-11.78s1.75-7.85,2.66-11.76c1.33-5.7,2.73-11.38,4.15-17.06.94-2.08,2.78-3.93,4.15-5.68,1.51-1.91,3-3.83,4.49-5.78a86,86,0,0,0,7.37-11.4A.08.08,0,0,0,263.34,302.49Z" style="fill:#263238"></path><path d="M264,295.94a79.7,79.7,0,0,0-8.71,13.84c0,.07.06.13.1.07,2.93-4.59,5.82-9.22,8.74-13.82C264.18,296,264.05,295.87,264,295.94Z" style="fill:#263238"></path><path d="M198.79,282.29c2,3.42,4.25,7.52,3.39,11.63-.54,2.6-2.44,4.71-2.78,7.36-.77,5.85,5.06,9.72,9.28,12.48,10.52,6.9,24.95,13.06,26.86,27.15.07.5.93.37.87-.11a.3.3,0,0,0,0-.1s.05,0,.05-.08a54,54,0,0,0-.2-21.53c-1.56-7.26-4.73-13.79-8.48-20.17-6.33-10.8-13-21.86-22.6-30.13-2.65-2.29-8.08-6.41-10.19-1.24C192.92,272.57,196.35,278.12,198.79,282.29Z" style="fill:#92E3A9"></path><path d="M208.41,305.19c7,7.55,18.06,11.78,24.07,20.23A84.77,84.77,0,0,0,214,290.68a.27.27,0,0,1,.39-.38,68.54,68.54,0,0,1,15.11,21.89A97.73,97.73,0,0,0,223,295.54a.18.18,0,0,1,.31-.18,63.83,63.83,0,0,1,7,18.71c7.91,19.15,8.64,41.61,7,61.79,0,.29-.46.3-.45,0,.45-15.9.19-32.09-3.62-47.62-.08-.32-.17-.64-.25-1-6.53-9.1-17.57-13.32-24.67-22C208.22,305.22,208.34,305.1,208.41,305.19Z" style="fill:#263238"></path><path d="M206.8,298.7c3.66,3.36,7.26,6.8,10.93,10.15a0,0,0,0,1-.06.07,53.57,53.57,0,0,1-11.09-10A.16.16,0,0,1,206.8,298.7Z" style="fill:#263238"></path><path d="M206.22,284.15a114.69,114.69,0,0,0,10.95,15.07.06.06,0,1,1-.09.09A52.84,52.84,0,0,1,206,284.26.11.11,0,0,1,206.22,284.15Z" style="fill:#263238"></path><polygon points="222.7 390.1 254.77 390.1 250.45 346.95 227.64 346.95 222.7 390.1" style="fill:#455a64"></polygon><polygon points="226.84 353.97 251.15 353.97 250.45 346.95 227.64 346.95 226.84 353.97" style="fill:#263238"></polygon><rect x="223.71" y="342.17" width="30.06" height="6.89" transform="translate(477.47 691.24) rotate(180)" style="fill:#455a64"></rect></g><g id="freepik--Device--inject-20"><rect x="272" y="140.23" width="381.74" height="255.35" style="fill:#dbdbdb"></rect><rect x="274.78" y="143.35" width="376.19" height="249.12" style="fill:#263238"></rect><rect x="222.29" y="414.73" width="481.17" height="17.53" style="fill:#c7c7c7"></rect><polygon points="222.29 414.73 272 395.58 653.74 395.58 703.46 414.73 222.29 414.73" style="fill:#dbdbdb"></polygon><polygon points="276.44 407.94 308.53 395.58 617.22 395.58 649.3 407.94 276.44 407.94" style="fill:#263238"></polygon><rect x="296.04" y="162.27" width="333.67" height="211.27" style="fill:#fff"></rect><rect x="295.76" y="162.27" width="333.95" height="8.13" style="fill:#455a64"></rect><circle cx="300.2" cy="166.34" r="2.02" style="fill:#c7c7c7"></circle><circle cx="308.43" cy="166.34" r="2.02" style="fill:#fff"></circle><circle cx="316.67" cy="166.34" r="2.02" style="fill:#92E3A9"></circle></g><g id="freepik--Information--inject-20"><polygon points="394.37 358.44 559.92 331.26 537.64 195.54 385.39 220.53 374.27 236.06 394.37 358.44" style="fill:#92E3A9"></polygon><rect x="398.92" y="224.59" width="132.58" height="95.69" transform="translate(-37.99 78.97) rotate(-9.32)" style="fill:#fff"></rect><path d="M411.38,258l-.53-3.23a.3.3,0,0,1,.25-.36h0l1.78-.29a.3.3,0,0,1,.35.25.32.32,0,0,1-.25.36l-1.49.24.16,1,1.28-.21a.3.3,0,0,1,.35.25.31.31,0,0,1-.25.36l-1.28.21.17,1,1.49-.25a.32.32,0,0,1,.35.26.31.31,0,0,1-.25.35l-1.78.29h0A.31.31,0,0,1,411.38,258Z" style="fill:#92E3A9"></path><path d="M417.41,253.68l.53,3.24a.31.31,0,0,1-.26.35.31.31,0,0,1-.35-.25l-.38-2.31-.61,1.22a.28.28,0,0,1-.22.17h0a.32.32,0,0,1-.28-.08l-1-1,.38,2.31a.32.32,0,0,1-.26.35.3.3,0,0,1-.35-.25l-.53-3.24a.3.3,0,0,1,.25-.35h0a.29.29,0,0,1,.26.08l1.34,1.34.84-1.7a.3.3,0,0,1,.23-.16h0A.32.32,0,0,1,417.41,253.68Z" style="fill:#92E3A9"></path><path d="M420.77,255.83l-1.33.22-.15.76a.31.31,0,0,1-.25.24h-.11a.32.32,0,0,1-.25-.37l.68-3.43a.33.33,0,0,1,.59-.1l1.74,3a.31.31,0,0,1-.12.42.23.23,0,0,1-.1,0,.3.3,0,0,1-.31-.15Zm-.32-.57-.64-1.1-.25,1.25Z" style="fill:#92E3A9"></path><path d="M422,252.93a.3.3,0,0,1,.25-.35.31.31,0,0,1,.36.25l.53,3.24a.31.31,0,0,1-.26.35.3.3,0,0,1-.35-.25Z" style="fill:#92E3A9"></path><path d="M424.14,255.9l-.53-3.24a.3.3,0,0,1,.25-.35.3.3,0,0,1,.35.25l.49,2.93,1.48-.24a.3.3,0,0,1,.35.26.31.31,0,0,1-.25.35l-1.78.29h0A.3.3,0,0,1,424.14,255.9Z" style="fill:#92E3A9"></path><polygon points="413.29 273.19 425.93 270.94 438.59 268.76 463.92 264.52 489.27 260.44 501.96 258.46 514.65 256.55 502.01 258.79 489.36 260.97 464.03 265.21 438.67 269.29 425.99 271.27 413.29 273.19" style="fill:#dbdbdb"></polygon><rect x="412.36" y="263.98" width="59.42" height="2.26" transform="translate(-37.11 75.12) rotate(-9.32)" style="fill:#dbdbdb"></rect><path d="M417.54,287.48l-.67.11.19,1.19a.3.3,0,0,1-.26.35.3.3,0,0,1-.35-.25l-.53-3.24a.31.31,0,0,1,.25-.35h0l1-.16a1.19,1.19,0,1,1,.38,2.35Zm-.77-.5.67-.11a.57.57,0,0,0,.48-.65.58.58,0,0,0-.66-.48l-.68.11Z" style="fill:#92E3A9"></path><path d="M421.13,287.49l-1.33.22-.16.76a.31.31,0,0,1-.25.24.21.21,0,0,1-.11,0,.31.31,0,0,1-.24-.36l.68-3.44a.32.32,0,0,1,.26-.24.33.33,0,0,1,.32.15l1.74,3a.31.31,0,0,1-.11.43l-.1,0a.29.29,0,0,1-.31-.15Zm-.32-.56-.64-1.11-.25,1.25Z" style="fill:#92E3A9"></path><path d="M422.5,287.22a.28.28,0,0,1,.39-.1,1.86,1.86,0,0,0,1.12.25,1.25,1.25,0,0,0,.65-.32.52.52,0,0,0,.17-.43.3.3,0,0,0-.08-.17.49.49,0,0,0-.19-.14,2.06,2.06,0,0,0-.79-.13h0a3.49,3.49,0,0,1-.75-.1,1.18,1.18,0,0,1-.58-.34,1,1,0,0,1-.2-.43,1.06,1.06,0,0,1,.31-.88,1.63,1.63,0,0,1,.9-.44,2.12,2.12,0,0,1,1.27.24.29.29,0,0,1,.14.38.28.28,0,0,1-.38.14,1.56,1.56,0,0,0-.94-.2,1.09,1.09,0,0,0-.58.28.45.45,0,0,0-.15.38.3.3,0,0,0,.06.15.62.62,0,0,0,.17.12,1.91,1.91,0,0,0,.73.13h0a3.16,3.16,0,0,1,.79.1,1.37,1.37,0,0,1,.63.37,1,1,0,0,1,.21.44,1.08,1.08,0,0,1-.34.93,1.69,1.69,0,0,1-1,.48,2.41,2.41,0,0,1-1.5-.32A.29.29,0,0,1,422.5,287.22Z" style="fill:#92E3A9"></path><path d="M426.1,286.63a.29.29,0,0,1,.4-.11,1.78,1.78,0,0,0,1.11.25,1.17,1.17,0,0,0,.66-.31.53.53,0,0,0,.17-.44.3.3,0,0,0-.08-.16.49.49,0,0,0-.19-.14,2.26,2.26,0,0,0-.8-.14h0a3.39,3.39,0,0,1-.74-.1,1.2,1.2,0,0,1-.58-.35.86.86,0,0,1-.2-.43,1,1,0,0,1,.31-.87,1.61,1.61,0,0,1,.9-.45,2.19,2.19,0,0,1,1.27.25.28.28,0,0,1,.14.37.28.28,0,0,1-.38.15,1.65,1.65,0,0,0-.94-.21,1.06,1.06,0,0,0-.58.29.49.49,0,0,0-.16.38.3.3,0,0,0,.07.15.5.5,0,0,0,.17.12,2.12,2.12,0,0,0,.73.13h0a3.21,3.21,0,0,1,.79.11,1.26,1.26,0,0,1,.63.37.81.81,0,0,1,.2.44,1.08,1.08,0,0,1-.33.93,1.79,1.79,0,0,1-1,.48,2.4,2.4,0,0,1-1.5-.32A.3.3,0,0,1,426.1,286.63Z" style="fill:#92E3A9"></path><path d="M434.41,282.77l-.82,3.42a.11.11,0,0,1,0,.05h0l0,0s0,0,0,0l0,0h0s0,0,0,0h-.07l-.05,0h-.12l-.05,0h0l0,0h0l0,0h0a.05.05,0,0,1,0,0l-1-1.59-.44,1.82s0,0,0,.06h0l0,0v0l0,0h0l0,0h0a.05.05,0,0,0,0,0h0l0,0h-.12l-.05,0h0l0,0,0,0,0,0h0l0,0-1.87-3a.3.3,0,0,1,.1-.42.29.29,0,0,1,.41.1l1.5,2.36.43-1.8a.3.3,0,0,1,.25-.23.31.31,0,0,1,.32.14l1,1.56.66-2.71a.3.3,0,0,1,.37-.23A.31.31,0,0,1,434.41,282.77Z" style="fill:#92E3A9"></path><path d="M438.24,282.16a2.06,2.06,0,0,1,.46,2.78,1.82,1.82,0,0,1-1.22.8,1.86,1.86,0,0,1-1.44-.37,2.08,2.08,0,0,1-.46-2.77,1.86,1.86,0,0,1,1.25-.81A1.8,1.8,0,0,1,438.24,282.16Zm.16,1.4a1.48,1.48,0,0,0-.53-.9,1.22,1.22,0,0,0-.93-.25,1.2,1.2,0,0,0-.83.54,1.44,1.44,0,0,0,.32,1.91,1.19,1.19,0,0,0,1.75-.28A1.43,1.43,0,0,0,438.4,283.56Z" style="fill:#92E3A9"></path><path d="M442.9,284.38a.31.31,0,0,1-.13.42.3.3,0,0,1-.12,0h0a.48.48,0,0,1-.22,0,.54.54,0,0,1-.21-.16A1.58,1.58,0,0,1,442,284a.55.55,0,0,0-.1-.23.58.58,0,0,0-.2-.13.86.86,0,0,0-.32-.08l-.65.11.19,1.19a.3.3,0,0,1-.25.35.32.32,0,0,1-.36-.25l-.53-3.24a.31.31,0,0,1,.25-.35h0l1-.16a3.18,3.18,0,0,0,1.31,2.12,1.1,1.1,0,0,1,.28.57,1.59,1.59,0,0,0,.07.32A.28.28,0,0,1,442.9,284.38Zm-1.13-2.08a.58.58,0,0,0-.66-.48l-.68.12.19,1.13.67-.12A.57.57,0,0,0,441.77,282.3Z" style="fill:#92E3A9"></path><path d="M443.81,284.39l-.53-3.24a.3.3,0,0,1,.25-.35l.65-.11a2,2,0,0,1,.63,3.85l-.65.1A.31.31,0,0,1,443.81,284.39Zm.56-.41.34-.05a1.33,1.33,0,0,0-.43-2.63l-.34.06Z" style="fill:#92E3A9"></path><path d="M418.91,298.3l-.66.63s-.07.07-.12.07a.18.18,0,0,1-.2-.14.2.2,0,0,1,.09-.18l.78-.54-.91-.26c-.07,0-.13-.07-.14-.14a.18.18,0,0,1,.14-.2.19.19,0,0,1,.14,0l.83.39-.22-.89a.17.17,0,0,1,.14-.21.16.16,0,0,1,.19.16l.09.9.66-.63a.21.21,0,0,1,.12-.07.18.18,0,0,1,.2.14.17.17,0,0,1-.09.18l-.78.54.91.27a.15.15,0,0,1,.14.13.17.17,0,0,1-.14.2.24.24,0,0,1-.14,0l-.83-.39.21.88a.16.16,0,0,1-.13.21.15.15,0,0,1-.19-.15Z" style="fill:#dbdbdb"></path><path d="M422.45,297.72l-.66.63a.21.21,0,0,1-.12.07.18.18,0,0,1-.2-.14.2.2,0,0,1,.09-.18l.78-.54-.91-.26c-.07,0-.13-.07-.14-.14a.18.18,0,0,1,.13-.2.21.21,0,0,1,.15,0l.83.38-.22-.88a.17.17,0,0,1,.14-.21.15.15,0,0,1,.19.15l.08.91.67-.63a.21.21,0,0,1,.12-.07.18.18,0,0,1,.2.14.18.18,0,0,1-.09.18l-.78.54.91.27a.15.15,0,0,1,.14.13.17.17,0,0,1-.14.2.24.24,0,0,1-.14,0l-.83-.39.21.88a.16.16,0,0,1-.13.21.15.15,0,0,1-.19-.15Z" style="fill:#dbdbdb"></path><path d="M426,297.14l-.66.63a.25.25,0,0,1-.12.07.17.17,0,0,1-.2-.14.2.2,0,0,1,.09-.18l.78-.54-.91-.26c-.07,0-.13-.07-.14-.14a.18.18,0,0,1,.13-.2.21.21,0,0,1,.15,0l.83.38-.22-.88a.17.17,0,0,1,.14-.21.15.15,0,0,1,.19.15l.08.91.67-.63s.07-.07.12-.07a.18.18,0,0,1,.2.14.19.19,0,0,1-.09.18l-.78.54.91.26c.06,0,.13.05.14.14a.17.17,0,0,1-.14.2.19.19,0,0,1-.14,0l-.83-.38.21.88a.16.16,0,0,1-.13.21.15.15,0,0,1-.19-.15Z" style="fill:#dbdbdb"></path><path d="M429.53,296.56l-.66.63a.28.28,0,0,1-.13.07.17.17,0,0,1-.19-.14.19.19,0,0,1,.09-.18l.78-.54-.91-.27a.17.17,0,0,1-.14-.13.18.18,0,0,1,.13-.2.22.22,0,0,1,.14,0l.84.39-.22-.88a.17.17,0,0,1,.14-.21.16.16,0,0,1,.19.15l.08.91.67-.63s.07-.07.12-.07a.18.18,0,0,1,.2.14.19.19,0,0,1-.09.18l-.79.54.92.26a.18.18,0,0,1,.14.14.19.19,0,0,1-.14.2.19.19,0,0,1-.14,0l-.83-.38.21.88a.16.16,0,0,1-.13.21.17.17,0,0,1-.2-.16Z" style="fill:#dbdbdb"></path><path d="M433.07,296l-.66.63a.28.28,0,0,1-.13.07.17.17,0,0,1-.19-.15.19.19,0,0,1,.09-.17l.78-.54-.91-.27a.17.17,0,0,1,0-.33.22.22,0,0,1,.14,0l.84.39-.22-.88a.17.17,0,0,1,.14-.21.16.16,0,0,1,.19.15l.08.91.67-.63a.18.18,0,0,1,.12-.08.19.19,0,0,1,.2.15.19.19,0,0,1-.09.18l-.79.54.92.26a.18.18,0,0,1,.14.14.19.19,0,0,1-.14.2.19.19,0,0,1-.14,0l-.83-.39.21.89a.16.16,0,0,1-.13.21.18.18,0,0,1-.2-.16Z" style="fill:#dbdbdb"></path><path d="M436.61,295.4,436,296a.28.28,0,0,1-.13.07.18.18,0,0,1-.19-.15.19.19,0,0,1,.09-.17l.78-.54-.91-.27a.17.17,0,0,1-.14-.14.18.18,0,0,1,.13-.2.22.22,0,0,1,.14,0l.84.39-.22-.89a.18.18,0,0,1,.14-.21.17.17,0,0,1,.19.16l.08.91.67-.64a.21.21,0,0,1,.12-.07.19.19,0,0,1,.2.15.17.17,0,0,1-.09.17l-.79.55.92.26a.18.18,0,0,1,.14.14.19.19,0,0,1-.14.2s-.08,0-.14,0l-.83-.39.21.89a.16.16,0,0,1-.13.21.18.18,0,0,1-.2-.16Z" style="fill:#dbdbdb"></path><path d="M440.15,294.81l-.66.64a.28.28,0,0,1-.13.07.18.18,0,0,1-.19-.15.19.19,0,0,1,.09-.17l.78-.54-.91-.27a.17.17,0,0,1-.14-.14.18.18,0,0,1,.13-.2.22.22,0,0,1,.14,0l.84.39-.22-.89a.18.18,0,0,1,.14-.21.17.17,0,0,1,.19.16l.08.91.67-.64a.21.21,0,0,1,.12-.07.18.18,0,0,1,.19.15.14.14,0,0,1-.09.17l-.78.55.92.26a.17.17,0,0,1,.14.14.19.19,0,0,1-.14.2.39.39,0,0,1-.14,0l-.83-.39.21.89a.16.16,0,0,1-.13.21.18.18,0,0,1-.2-.16Z" style="fill:#dbdbdb"></path><path d="M443.69,294.23l-.66.64a.28.28,0,0,1-.13.07.18.18,0,0,1-.19-.15.19.19,0,0,1,.09-.17l.78-.55-.91-.26a.17.17,0,0,1,0-.34.22.22,0,0,1,.14,0l.84.39-.22-.89a.17.17,0,0,1,.14-.21.17.17,0,0,1,.19.16l.08.91.67-.64a.21.21,0,0,1,.12-.07.18.18,0,0,1,.19.15.14.14,0,0,1-.09.17l-.78.54.92.27a.17.17,0,0,1,0,.33.24.24,0,0,1-.14,0l-.83-.39.21.89a.15.15,0,0,1-.13.2.17.17,0,0,1-.2-.15Z" style="fill:#dbdbdb"></path><path d="M447.23,293.65l-.66.64a.28.28,0,0,1-.13.07.18.18,0,0,1-.19-.15.19.19,0,0,1,.09-.17l.78-.55-.91-.26a.17.17,0,0,1,0-.34.17.17,0,0,1,.14,0l.83.39-.21-.89a.17.17,0,0,1,.14-.21.17.17,0,0,1,.19.16l.08.9.67-.63a.21.21,0,0,1,.12-.07.17.17,0,0,1,.19.15.14.14,0,0,1-.09.17l-.78.54.92.27a.16.16,0,0,1,.14.13.17.17,0,0,1-.14.2.24.24,0,0,1-.14,0l-.83-.39.21.89a.15.15,0,0,1-.13.2.17.17,0,0,1-.2-.15Z" style="fill:#dbdbdb"></path><path d="M450.77,293.07l-.66.63c-.05,0-.08.07-.13.07a.16.16,0,0,1-.19-.14.2.2,0,0,1,.09-.18l.78-.54-.91-.26c-.07,0-.13-.07-.14-.14a.17.17,0,0,1,.13-.2.17.17,0,0,1,.14,0l.83.39-.21-.89a.17.17,0,0,1,.14-.21.17.17,0,0,1,.19.16l.08.9.67-.63a.21.21,0,0,1,.12-.07.16.16,0,0,1,.19.14.15.15,0,0,1-.09.18l-.78.54.92.27a.16.16,0,0,1,.14.13.18.18,0,0,1-.14.2.24.24,0,0,1-.14,0L451,293l.21.88a.16.16,0,0,1-.13.21.17.17,0,0,1-.2-.15Z" style="fill:#dbdbdb"></path><path d="M454.31,292.49l-.66.63a.28.28,0,0,1-.13.07.17.17,0,0,1-.19-.14.2.2,0,0,1,.09-.18l.78-.54-.91-.26c-.07,0-.13-.07-.14-.14a.17.17,0,0,1,.13-.2.17.17,0,0,1,.14,0l.84.38-.22-.88a.17.17,0,0,1,.14-.21.16.16,0,0,1,.19.15l.08.91.67-.63a.21.21,0,0,1,.12-.07.17.17,0,0,1,.1.32l-.78.54.92.27a.16.16,0,0,1,.14.13.18.18,0,0,1-.14.2.19.19,0,0,1-.14,0l-.83-.38.21.88a.16.16,0,0,1-.13.21.17.17,0,0,1-.2-.15Z" style="fill:#dbdbdb"></path><polygon points="418.36 304.08 431 301.83 443.66 299.65 468.99 295.41 494.34 291.33 507.03 289.35 519.73 287.44 507.08 289.68 494.43 291.86 469.1 296.1 443.75 300.18 431.06 302.16 418.36 304.08" style="fill:#dbdbdb"></polygon><rect x="446.87" y="310.81" width="51.96" height="16.33" transform="translate(-45.43 80.82) rotate(-9.32)" style="fill:#455a64"></rect><path d="M460.69,323.55l-.8-4.86a.45.45,0,0,1,.38-.52.46.46,0,0,1,.53.37l.73,4.4,2.23-.36a.46.46,0,1,1,.15.91l-2.67.44h0A.46.46,0,0,1,460.69,323.55Z" style="fill:#fff"></path><path d="M468.79,317.5a3,3,0,0,1,1.17,1.95,3,3,0,0,1-.49,2.22,2.74,2.74,0,0,1-1.82,1.21,2.86,2.86,0,0,1-2.17-.55,3.08,3.08,0,0,1-1.15-1.95,3,3,0,0,1,.47-2.22,2.72,2.72,0,0,1,4-.66Zm.23,2.1a2.14,2.14,0,0,0-.79-1.34,1.8,1.8,0,0,0-1.4-.38,1.84,1.84,0,0,0-1.24.81,2.16,2.16,0,0,0,.47,2.87,1.84,1.84,0,0,0,1.43.38,1.81,1.81,0,0,0,1.21-.81A2.13,2.13,0,0,0,469,319.6Z" style="fill:#fff"></path><path d="M471.33,319.23a3,3,0,0,1,2.55-3.47,3.1,3.1,0,0,1,2,.34.48.48,0,0,1,.21.65.5.5,0,0,1-.66.18,2.21,2.21,0,0,0-1.38-.23,2.09,2.09,0,0,0-1.38.85,2,2,0,0,0-.38,1.53,2,2,0,0,0,.85,1.32,2.09,2.09,0,0,0,1.58.35,2.28,2.28,0,0,0,1.08-.49l-.19-1.13-1.18.19a.48.48,0,0,1-.54-.39.47.47,0,0,1,.39-.54l1.62-.27h0a.47.47,0,0,1,.55.38l.3,1.82a.75.75,0,0,1,0,.15.06.06,0,0,1,0,0h0a.37.37,0,0,1-.12.22,3.08,3.08,0,0,1-5.29-1.51Z" style="fill:#fff"></path><path d="M478,315.73a.45.45,0,0,1,.38-.53.46.46,0,0,1,.53.38l.8,4.86a.47.47,0,0,1-.38.53.46.46,0,0,1-.53-.38Z" style="fill:#fff"></path><path d="M482.12,320a.46.46,0,1,1-.9.14l-.79-4.78h0a.45.45,0,0,1,.76-.41l3.27,3.24-.56-3.39a.46.46,0,0,1,.9-.15l.79,4.79a.46.46,0,0,1-.38.52.43.43,0,0,1-.37-.11.1.1,0,0,1,0,0l-3.23-3.22Z" style="fill:#fff"></path><path d="M451.05,334.23a.13.13,0,0,1,.11-.15h0l2-.32a.13.13,0,0,1,.15.11.14.14,0,0,1-.11.16l-1.84.3.24,1.52,1.62-.26a.13.13,0,0,1,.16.11.15.15,0,0,1-.12.16l-1.61.26.27,1.65a.14.14,0,0,1-.12.16.13.13,0,0,1-.15-.11Z" style="fill:#263238"></path><path d="M455.23,334.59a1.37,1.37,0,1,1-1.05,1.56A1.34,1.34,0,0,1,455.23,334.59Zm.4,2.43a1.1,1.1,0,1,0-1.19-.92A1.06,1.06,0,0,0,455.63,337Z" style="fill:#263238"></path><path d="M457.43,334.37a.13.13,0,1,1,.26,0l.1.59a.11.11,0,0,1,0-.07,1.33,1.33,0,0,1,1-.84.15.15,0,0,1,.16.11.14.14,0,0,1-.11.16,1,1,0,0,0-.71.56,2.65,2.65,0,0,0-.22.68.13.13,0,0,0,0,.05l.2,1.18a.13.13,0,0,1-.11.15.14.14,0,0,1-.16-.11Z" style="fill:#263238"></path><path d="M462.57,335.93a1.29,1.29,0,0,1-1.06,1.47,1.41,1.41,0,0,1-.58,0c-.06,0-.11-.1-.08-.16a.12.12,0,0,1,.16-.09,1.17,1.17,0,0,0,.46,0,1,1,0,0,0,.84-1.17l-.06-.33a1.2,1.2,0,0,1-.92.69,1.31,1.31,0,0,1-1.48-1.13,1.32,1.32,0,0,1,1-1.54A1.25,1.25,0,0,1,462,334l-.07-.39a.15.15,0,0,1,.12-.16.15.15,0,0,1,.15.12Zm-.45-1.1a1,1,0,1,0-.83,1.25A1.06,1.06,0,0,0,462.12,334.83Z" style="fill:#263238"></path><path d="M464.59,333.06a1.33,1.33,0,0,1,1.49,1.13,1.29,1.29,0,1,1-2.55.42A1.33,1.33,0,0,1,464.59,333.06Zm.39,2.42a1.1,1.1,0,1,0-1.18-.91A1.06,1.06,0,0,0,465,335.48Z" style="fill:#263238"></path><path d="M467.73,332.68a.15.15,0,0,1-.11.15l-.35.06.32,2a.21.21,0,0,0,.23.16.14.14,0,1,1,.05.27.46.46,0,0,1-.55-.39l-.32-2-.34.06c-.13,0-.14-.05-.15-.11s0-.14.11-.16l.33-.05-.16-1a.13.13,0,0,1,.11-.15.14.14,0,0,1,.16.1l.17,1,.34-.05A.14.14,0,0,1,467.73,332.68Z" style="fill:#263238"></path><path d="M470.84,333.45v-.1l-.19-1.15a.13.13,0,0,1,.11-.15.13.13,0,0,1,.16.1l.06.39a1.26,1.26,0,0,1,.94-.68,1.35,1.35,0,0,1,.44,2.67,1.28,1.28,0,0,1-1.11-.36l.25,1.53a.14.14,0,0,1-.11.16.15.15,0,0,1-.16-.11Zm.26-.09a1.06,1.06,0,0,0,1.19.9,1.09,1.09,0,1,0-1.2-.95Z" style="fill:#263238"></path><path d="M476.51,331.23l.4,2.43a.13.13,0,1,1-.26,0l-.07-.4a1.27,1.27,0,0,1-.92.7,1.36,1.36,0,0,1-.44-2.69,1.25,1.25,0,0,1,1.09.36l-.06-.39a.14.14,0,0,1,.11-.16A.13.13,0,0,1,476.51,331.23Zm-.06,1.26a1,1,0,1,0-.84,1.25A1.07,1.07,0,0,0,476.45,332.49Z" style="fill:#263238"></path><path d="M477.8,333.07a.13.13,0,0,1,.18,0,1.46,1.46,0,0,0,.87.17.87.87,0,0,0,.49-.24.45.45,0,0,0,.15-.37.43.43,0,0,0-.25-.29,1.31,1.31,0,0,0-.6-.11h0a1.75,1.75,0,0,1-.64-.11.58.58,0,0,1-.37-.44.68.68,0,0,1,.21-.57,1.16,1.16,0,0,1,.62-.29,1.42,1.42,0,0,1,.85.16.14.14,0,0,1,.07.18.13.13,0,0,1-.17.07,1.14,1.14,0,0,0-.7-.16.81.81,0,0,0-.49.23.4.4,0,0,0-.12.34.32.32,0,0,0,.2.24,1.26,1.26,0,0,0,.58.1h0a2.12,2.12,0,0,1,.69.11.71.71,0,0,1,.39.5.66.66,0,0,1-.22.59,1.13,1.13,0,0,1-.63.33,1.69,1.69,0,0,1-1.06-.22A.13.13,0,0,1,477.8,333.07Z" style="fill:#263238"></path><path d="M480.44,332.64a.14.14,0,0,1,.19-.05,1.38,1.38,0,0,0,.87.18.77.77,0,0,0,.48-.25.4.4,0,0,0,.15-.36.41.41,0,0,0-.24-.3,1.37,1.37,0,0,0-.61-.1h0a1.39,1.39,0,0,1-.64-.11.54.54,0,0,1-.37-.43.65.65,0,0,1,.2-.57,1.12,1.12,0,0,1,.63-.29,1.42,1.42,0,0,1,.85.16.14.14,0,0,1,.07.18.14.14,0,0,1-.18.06,1.25,1.25,0,0,0-.7-.16.84.84,0,0,0-.48.24.4.4,0,0,0-.12.34.34.34,0,0,0,.19.24,1.48,1.48,0,0,0,.58.1h0a1.79,1.79,0,0,1,.68.12.67.67,0,0,1,.4.5.71.71,0,0,1-.22.59,1.09,1.09,0,0,1-.64.32,1.61,1.61,0,0,1-1.05-.22A.12.12,0,0,1,480.44,332.64Z" style="fill:#263238"></path><path d="M484.24,332.57a.18.18,0,0,1-.07-.05l-1.4-2.24a.14.14,0,0,1,0-.18.14.14,0,0,1,.19,0l1.24,2,.38-1.57a.14.14,0,0,1,.11-.11.15.15,0,0,1,.14.06l.87,1.38.54-2.27a.14.14,0,0,1,.16-.1.14.14,0,0,1,.1.16l-.62,2.56a.15.15,0,0,1,0,.07.1.1,0,0,1-.07,0h0a.14.14,0,0,1-.12-.07h0l-.87-1.39-.37,1.59h0a.14.14,0,0,1-.1.1h-.07Z" style="fill:#263238"></path><path d="M488.64,329.11a1.33,1.33,0,0,1,1.49,1.13,1.29,1.29,0,1,1-2.55.42A1.33,1.33,0,0,1,488.64,329.11Zm.39,2.42a1.1,1.1,0,1,0-1.18-.91A1.05,1.05,0,0,0,489,331.53Z" style="fill:#263238"></path><path d="M490.83,328.89a.14.14,0,0,1,.12-.16.15.15,0,0,1,.15.11l.09.6,0-.07a1.29,1.29,0,0,1,1-.84.13.13,0,0,1,.15.11.13.13,0,0,1-.11.15,1,1,0,0,0-.71.57,2.43,2.43,0,0,0-.22.68v0l.19,1.18a.13.13,0,0,1-.1.16.14.14,0,0,1-.16-.11Z" style="fill:#263238"></path><path d="M495.59,330.19a1.28,1.28,0,0,1-.95.69,1.36,1.36,0,0,1-.44-2.69,1.3,1.3,0,0,1,1.12.36l-.25-1.55a.13.13,0,0,1,.11-.15.15.15,0,0,1,.16.11l.38,2.32v.05l.19,1.21a.13.13,0,0,1-.11.15.15.15,0,0,1-.16-.11Zm-.13-.77v-.09a1,1,0,1,0-2.06.38,1,1,0,1,0,2.07-.29Z" style="fill:#263238"></path><path d="M497.52,328.79h0a.12.12,0,0,1,.11-.14.95.95,0,0,0-.31-1.87.93.93,0,0,0-.72.6.15.15,0,0,1-.17.08.13.13,0,0,1-.07-.17,1.17,1.17,0,0,1,.92-.76,1.2,1.2,0,0,1,.52,2.34l.1.59a.14.14,0,0,1-.11.15.13.13,0,0,1-.15-.11Zm.21,1.33a.13.13,0,0,1,.26,0l0,.12a.13.13,0,0,1-.11.15.14.14,0,0,1-.15-.11Z" style="fill:#263238"></path><path d="M474.63,234.37a28.56,28.56,0,0,1-7.8,4.88,29.41,29.41,0,1,1,7.8-4.88Z" style="fill:#92E3A9"></path><path d="M473.06,232.57a27,27,0,1,1,7.13-31A26.77,26.77,0,0,1,473.06,232.57Z" style="fill:#fff"></path><path d="M462.92,207.8a8.22,8.22,0,1,1-9.45-6.78A8.22,8.22,0,0,1,462.92,207.8Z" style="fill:#92E3A9"></path><path d="M472.51,229.23l.55,3.34a27,27,0,0,1-28.06,4.6l-.54-3.34a14.21,14.21,0,1,1,28.05-4.6Z" style="fill:#92E3A9"></path><path d="M386.9,230.75a9.42,9.42,0,0,0,7.76-10.82l-.53-3.19-2.06.33.53,3.2a7.33,7.33,0,0,1-14.46,2.38L373,191.41l-2.06.33L376.08,223A9.42,9.42,0,0,0,386.9,230.75Z" style="fill:#263238"></path><path d="M367.31,189.13a4.22,4.22,0,1,1,4.84,3.47A4.22,4.22,0,0,1,367.31,189.13Zm2.06-.34a2.13,2.13,0,1,0,1.76-2.45A2.13,2.13,0,0,0,369.37,188.79Z" style="fill:#263238"></path><path d="M394.21,217.2l-1.55-9.44L390,218.63l.61-1.2a1,1,0,0,1,1.42-.36h0Z" style="fill:#263238"></path><polygon points="374.24 236.07 387.58 233.88 385.39 220.53 374.24 236.07" style="fill:#92E3A9"></polygon><polygon points="374.24 236.07 387.58 233.88 385.39 220.53 374.24 236.07" style="opacity:0.1"></polygon></g><g id="freepik--Character--inject-20"><path d="M223.94,443.68c-2.14.73-63.5.94-65.85-.53-.89-.55-1.45-9.49-1.81-20.3-.08-2.34-.14-4.75-.2-7.2l-5-32.73,41-.26L196,415.39l-.15,7.2s23.53,10.43,25.92,12.32S226.08,443,223.94,443.68Z" style="fill:#eb9481"></path><path d="M223.94,443.68c-2.14.73-63.5.94-65.85-.53-1.08-.68-1.68-13.73-2-27.5l39.92-.26-.15,7.2s23.53,10.43,25.92,12.32S226.08,443,223.94,443.68Z" style="fill:#fff"></path><path d="M223.94,443.68c-2.14.73-63.5.94-65.85-.53-.89-.55-1.45-9.49-1.81-20.3l39.57-.26s23.53,10.43,25.92,12.32S226.08,443,223.94,443.68Z" style="fill:#455a64"></path><path d="M223.05,441.23c-10.29-.22-51.8-.12-62,.45-.09,0-.09.06,0,.06,10.19.44,51.7,0,62-.34C223.27,441.39,223.27,441.23,223.05,441.23Z" style="fill:#263238"></path><path d="M199.84,423.6c-4.12,0-8.89,1.43-11.43,4.81-.1.13.08.27.21.2a57.06,57.06,0,0,1,11.29-4.5A.26.26,0,0,0,199.84,423.6Z" style="fill:#263238"></path><path d="M203,424.83c-4.12,0-8.88,1.43-11.43,4.8-.1.14.09.27.21.21a57.06,57.06,0,0,1,11.29-4.5A.26.26,0,0,0,203,424.83Z" style="fill:#263238"></path><path d="M206.2,426.06c-4.11,0-8.88,1.43-11.43,4.8-.1.13.09.27.21.21a56.55,56.55,0,0,1,11.3-4.5A.26.26,0,0,0,206.2,426.06Z" style="fill:#263238"></path><path d="M89.39,227.25s50.7,92.29,52,98c2,8.75,12.41,96.43,12.41,96.43l44.92-.89s-10.15-77.47-18.24-102.55c-5.83-18.07-52.88-91-52.88-91Z" style="fill:#263238"></path><path d="M197.35,413.07c-7.12-.05-32.34-.33-41.82.55a.07.07,0,0,0,0,.14c3.26.47,34.71-.26,41.82-.49A.1.1,0,1,0,197.35,413.07Z" style="fill:#37474f"></path><path d="M100.6,234l11.7,20.45L123.84,275q5.76,10.27,11.37,20.63c3.75,6.9,7.5,13.8,11,20.83.43.88.87,1.76,1.28,2.67a11.48,11.48,0,0,1,1,2.88c.39,1.95.68,3.89,1,5.84.57,3.89,1.07,7.79,1.56,11.68,1,7.8,1.89,15.6,2.73,23.4l2.48,23.43,2.27,23.44L153,363c-.95-7.79-1.85-15.59-2.86-23.37-.51-3.89-1-7.78-1.61-11.66-.29-1.93-.59-3.87-1-5.77a10.35,10.35,0,0,0-.91-2.68c-.39-.89-.82-1.77-1.25-2.65-7.05-14-14.72-27.72-22.18-41.52Z" style="fill:#37474f"></path><path d="M139.92,321.78c-8.45-17.92-50.53-94.53-50.53-94.53H124C127.47,247.6,136.4,300.57,139.92,321.78Z" style="fill:#37474f"></path><path d="M128.37,457.36c-2.26.15-63.14-15.9-65-17.91a.87.87,0,0,1-.14-.42c-.25-2,2.87-9.47,5-19,.14-.61,1.29-3.52,2.89-7.44,4.42-10.78,12.3-29.28,12.3-29.28l39.75,10.2-14.64,29.42-2,6.92s20.1,16.08,21.94,18.52S130.62,457.21,128.37,457.36Z" style="fill:#eb9481"></path><path d="M128.37,457.36c-2.26.15-63.14-15.9-65-17.91a.87.87,0,0,1-.14-.42c-.25-2,2.87-9.47,5-19,.14-.61,1.29-3.52,2.89-7.44l37.41,10.34-2,6.92s20.1,16.08,21.94,18.52S130.62,457.21,128.37,457.36Z" style="fill:#fff"></path><path d="M128.36,457.36c-2.25.16-63.13-15.9-65-17.92-.72-.76.86-9,4.91-19.45l38.32,9.83s20.1,16.07,21.94,18.51S130.62,457.2,128.36,457.36Z" style="fill:#455a64"></path><path d="M128.13,454.76c-9.9-2.82-50.07-13.3-60.06-15.34-.08,0-.1,0,0,.06,9.75,3,50,13.17,60,15.45C128.3,455,128.34,454.82,128.13,454.76Z" style="fill:#263238"></path><path d="M110.17,431.81c-4-1.09-9-.88-12.28,1.73-.13.11,0,.29.15.26a56.3,56.3,0,0,1,12.07-1.48A.26.26,0,0,0,110.17,431.81Z" style="fill:#263238"></path><path d="M112.93,433.81c-4-1.09-9-.88-12.28,1.73-.13.1,0,.28.16.25a56.83,56.83,0,0,1,12.06-1.47A.26.26,0,0,0,112.93,433.81Z" style="fill:#263238"></path><path d="M115.7,435.8c-4-1.09-9-.88-12.28,1.74-.13.1,0,.28.15.25a56.94,56.94,0,0,1,12.07-1.48A.26.26,0,0,0,115.7,435.8Z" style="fill:#263238"></path><path d="M109.3,429.91,64.77,418.22S109.37,325.4,109,319.6c-.3-5.13-31.23-50.16-32.94-58.59-2.8-13.8,3.92-26.12,10.44-33.76h41.05s2.73,17.14.71,24.94c0,0-4.61,1.95-5.59,2.58,0,0,28.43,46.8,29.17,62.71S109.3,429.91,109.3,429.91Z" style="fill:#263238"></path><path d="M110,421.89c-6.46-1.85-4.58-1.41-11.06-3.19-3.17-.87-24-6.56-27.11-6.86-.07,0-.1.11,0,.14,2.84,1.27,23.78,6.61,27,7.41,6.52,1.66,4.66,1.11,11.19,2.69A.1.1,0,1,0,110,421.89Z" style="fill:#37474f"></path><path d="M129.24,251.38a82.93,82.93,0,0,0-12.75,6,.14.14,0,1,0,.12.25c4.3-1.87,8.69-3.67,12.88-5.77A.28.28,0,0,0,129.24,251.38Z" style="fill:#37474f"></path><path d="M123.83,250.25a19.46,19.46,0,0,0-.82,2.48,5.48,5.48,0,0,0-.32,2c0,.13.19.14.27,0a7.18,7.18,0,0,0,.86-2c.28-.77.57-1.54.83-2.31A.43.43,0,0,0,123.83,250.25Z" style="fill:#37474f"></path><path d="M123.84,246.07c.18-.71.36-1.41.56-2.11s.46-1.45.6-2.19a.09.09,0,0,1,.18,0c-.18.71-.26,1.45-.38,2.17s-.27,1.44-.41,2.16a39.54,39.54,0,0,1-1,4,4.73,4.73,0,0,0,2-.63,3.8,3.8,0,0,0,1.26-2c.28-.81.54-1.62.84-2.42a16,16,0,0,0,.89-2.69c0-.11.21-.06.18.06a29,29,0,0,1-1.64,5.68c-.32.72-.55,1.46-1.26,1.81a6.15,6.15,0,0,1-2.47.49c-.1,0-.24,0-.22-.14A41.82,41.82,0,0,1,123.84,246.07Z" style="fill:#37474f"></path><path d="M123.07,254.82c1.75,3.16,3.75,6.2,5.63,9.29s3.57,6.1,5.27,9.19q5.17,9.38,9.55,19.17c1.45,3.23,2.81,6.48,4.09,9.78a73.28,73.28,0,0,1,3.34,10.1,27.25,27.25,0,0,1,.45,10.49,71.68,71.68,0,0,1-2.71,10.48,187.94,187.94,0,0,1-8.7,23.11c-.11.25-.53.06-.44-.2,2.44-6.86,5-13.7,7.14-20.65,2.12-6.74,4.64-13.73,3.47-20.89a53.53,53.53,0,0,0-2.93-10.05q-1.86-5-4-9.9c-2.79-6.44-5.93-12.7-9.14-18.94-1.8-3.49-3.69-6.94-5.5-10.42s-3.62-7.09-5.68-10.48C122.85,254.81,123,254.72,123.07,254.82Z" style="fill:#37474f"></path><path d="M89.52,248.06c.84-.14,2.06.15,5.67-.1a19.84,19.84,0,0,0,3-.48,6.64,6.64,0,0,0,2.76-1.12,14.54,14.54,0,0,0,3.14-4.33,22.09,22.09,0,0,0,2.19-5.33c0-.11.19-.06.17.05-.19,1.05-.29,2.11-.57,3.15a18.29,18.29,0,0,1-1.06,2.87,11.65,11.65,0,0,1-3.22,4.76c-1.63,1.23-3.9,1.46-5.88,1.59-1.14.08-5.61,0-6.22-.68C89.36,248.33,89.37,248.08,89.52,248.06Z" style="fill:#37474f"></path><path d="M73.81,410.61c4.83-12.64,31-68.62,36.11-80.31,1.22-2.79,2.69-5.62,3.32-8.62.69-3.27-.31-6.22-1.69-9.15a157.87,157.87,0,0,0-8.6-15.61c-3.13-5.07-6.44-10-9.71-15a155.93,155.93,0,0,1-9.3-15.17c-2.53-5.05-3.94-10.44-3.21-16.11s3.15-10.91,5.77-15.88c.69-1.31,1.39-2.61,2.09-3.92,0-.1.2,0,.15.09-2.92,5.21-5.71,10.68-7.06,16.53a26.8,26.8,0,0,0-.65,8.83,28.25,28.25,0,0,0,2.5,8.63c2.42,5.32,5.8,10.22,9,15.1s6.58,9.94,9.75,15a172.15,172.15,0,0,1,8.87,15.64c1.18,2.4,2.47,4.9,2.75,7.6.32,2.95-.75,5.78-1.89,8.44-4.95,11.61-37.21,82.66-37.91,84.09C74,411,73.74,410.79,73.81,410.61Z" style="fill:#37474f"></path><path d="M137.07,181.68c3.67,7.26,17.31,33.68,26.1,37.95,14,6.8,42.59.35,50.46-1.34,3.43-.74-.94-29.13-4.66-28.61-2.5.35-31.1,8.46-33.84,7.87s-19.36-15.23-28.9-24.74C137.14,163.74,129.3,166.3,137.07,181.68Z" style="fill:#eb9481"></path><path d="M224.64,215.07c-5.23,2.88-18.23,4.59-21.52,3.8s-6.94-22.8-4.57-25.35,20.72-10.88,26.72-9.84S230.06,212.09,224.64,215.07Z" style="fill:#eb9481"></path><rect x="198" y="215.14" width="10.97" height="54.5" transform="translate(59.36 -39.37) rotate(12.92)" style="fill:#263238"></rect><path d="M210.72,218.75l-2.95-.54c.15-.8,15.24-80.2,74-152.57l2.33,1.89C225.84,139.28,210.86,218,210.72,218.75Z" style="fill:#263238"></path><rect x="212.45" y="227.34" width="9.13" height="2" transform="translate(56.56 -42.75) rotate(12.92)" style="fill:#263238"></rect><rect x="216.9" y="225.07" width="8.42" height="8.42" transform="translate(56.87 -43.64) rotate(12.92)" style="fill:#37474f"></rect><rect x="221.15" y="233.79" width="1.27" height="2.93" transform="translate(58.21 -43.63) rotate(12.92)" style="fill:#263238"></rect><rect x="225.28" y="241.16" width="1.27" height="2.93" transform="translate(512.92 76.69) rotate(102.92)" style="fill:#263238"></rect><polygon points="225.59 243.2 224.35 242.92 220.84 236.54 222.08 236.82 225.59 243.2" style="fill:#263238"></polygon><rect x="227.28" y="242.02" width="5.47" height="3.08" transform="translate(60.29 -45.27) rotate(12.92)" style="fill:#37474f"></rect><rect x="218.89" y="189.27" width="1" height="5.19" transform="translate(-44.31 316) rotate(-66.38)" style="fill:#263238"></rect><rect x="228.92" y="163.03" width="1" height="5.19" transform="translate(-14.26 309.46) rotate(-66.38)" style="fill:#263238"></rect><rect x="241.34" y="135.17" width="1" height="5.19" transform="translate(-8.31 259.8) rotate(-55.67)" style="fill:#263238"></rect><rect x="269.36" y="86.11" width="1" height="5.19" transform="translate(44.43 261.55) rotate(-55.67)" style="fill:#263238"></rect><rect x="253.91" y="110.25" width="1" height="5.19" transform="translate(17.76 259.31) rotate(-55.67)" style="fill:#263238"></rect><path d="M208.92,220.87l-.41-.3c.11-.14,10.25-14,9.16-29.33v-.09l.06-.08c.11-.15,11.15-14.85,9.51-26.25v-.12l.07-.08c.15-.16,14.22-16.21,12.62-28l0-.15.13-.09a34.4,34.4,0,0,0,13.12-24.29V112l.09-.07c.14-.1,13.88-10.22,15.41-23.92v-.13l.12-.06c.11-.07,11.69-6.56,14.9-20.3l.26-1.13.23,1.14a206.92,206.92,0,0,0,17.3,47.6c11.84,23.41,33.47,54.56,69.27,70l-.2.46C334.6,170.1,312.9,138.84,301,115.36A212.78,212.78,0,0,1,283.9,68.69c-3.38,12.53-13.57,18.81-14.77,19.51-1.55,13.27-14.29,23.16-15.51,24.08a34.92,34.92,0,0,1-13.2,24.45c1.44,11.52-11.55,26.83-12.67,28.13,1.51,11.16-8.72,25.27-9.58,26.44C219.23,206.73,209,220.73,208.92,220.87Z" style="fill:#263238"></path><path d="M215.72,183.93c-1.58,2.74,2.55,3,2.55,3s-6.05,1-6.59,4.46,4.5,3.51,4.86,3.53c-.32.06-5.86,1.13-6,4.66s4.87,3,5.2,2.94c-.29.14-4,2.16-3.56,4.88.82,4.65,10.52-.25,14.1,1.1,0,0-1.59,6.34-1.6,6.53,0,0,9.33-4.47,10.87-9.41a3.29,3.29,0,0,0-1.44-3.87s3.16-1.11,3.39-3.89c.12-1.42-2.06-2.87-2.06-2.87a4.13,4.13,0,0,0,2.55-3.47c.05-2-2.14-3.13-2.14-3.13s2-2.07,1.35-4.1C235.94,180.22,219.11,178.07,215.72,183.93Z" style="fill:#eb9481"></path><path d="M235.49,188.2c.06,0,.09-.07,0-.09a29.4,29.4,0,0,0-17.47-1.18c-.18,0-.18.36,0,.35A60.18,60.18,0,0,1,235.49,188.2Z" style="fill:#263238"></path><path d="M235.49,195c.07,0,.09-.1,0-.12a27.57,27.57,0,0,0-19.13-.11c-.22.09-.33.38-.07.3C220.58,193.75,230.13,193.85,235.49,195Z" style="fill:#263238"></path><path d="M215.32,202.88c6.07-2.14,12.21-2.12,18.52-1.19.09,0,.09-.11,0-.14-3-1.29-7.05-1.47-10.24-1.33a16.92,16.92,0,0,0-8.38,2.45C215.14,202.73,215.19,202.93,215.32,202.88Z" style="fill:#263238"></path><path d="M218.27,187a19.37,19.37,0,0,0-3.32,1.21,6.44,6.44,0,0,0-2.66,2.08,2.11,2.11,0,0,0-.34,1.49,3.12,3.12,0,0,0,.63,1.44,3.84,3.84,0,0,0,2.84,1.2l2.59.06-2.45.84a10.31,10.31,0,0,0-3,1.61,3.77,3.77,0,0,0-1.64,2.63,2.16,2.16,0,0,0,1.43,2.32,6.47,6.47,0,0,0,3.28.2l3-.48-2.7,1.44a9.66,9.66,0,0,0-2.07,1.48,4.07,4.07,0,0,0-1.29,2,2,2,0,0,0,.65,2,4.36,4.36,0,0,0,2.33.64,34.27,34.27,0,0,0,5.31-.44c.89-.11,1.79-.22,2.69-.29a6.42,6.42,0,0,1,2.69.2,7,7,0,0,0-2.66,0c-.89.14-1.76.32-2.65.5a29.14,29.14,0,0,1-5.4.73,5,5,0,0,1-2.82-.67,2.77,2.77,0,0,1-1.06-2.85,5,5,0,0,1,1.52-2.51,10.8,10.8,0,0,1,2.29-1.68l.34,1a7.55,7.55,0,0,1-3.88-.2,3.15,3.15,0,0,1-1.65-1.35,3.57,3.57,0,0,1-.43-2,4.8,4.8,0,0,1,2.07-3.34,11.7,11.7,0,0,1,3.38-1.71l.13.9a4.5,4.5,0,0,1-3.43-1.67,4,4,0,0,1-.69-1.81,2.76,2.76,0,0,1,.51-1.88,6.61,6.61,0,0,1,3-2.06A16.14,16.14,0,0,1,218.27,187Z" style="fill:#263238"></path><path d="M201.42,191.55s15.59-20,20.41-10.05c1.43,2.94,3.8,16.75,1,17.28-3.57.69-5.63-4.89-6.37-8.6,0,0-4.34,7.54-10.49,6.08A6.3,6.3,0,0,1,201.42,191.55Z" style="fill:#eb9481"></path><path d="M221.38,180.7a13.14,13.14,0,0,1,1.58,3.52,28.39,28.39,0,0,1,.92,3.77,44.12,44.12,0,0,1,.76,7.73,7.79,7.79,0,0,1-.27,2,2.78,2.78,0,0,1-.57,1,1.75,1.75,0,0,1-.5.41,1.87,1.87,0,0,1-.61.22,3.3,3.3,0,0,1-2.22-.41,6.12,6.12,0,0,1-1.58-1.41,11.77,11.77,0,0,1-1.85-3.54,26.76,26.76,0,0,1-1-3.79l.83.12a15.63,15.63,0,0,1-1.8,2.36,14.28,14.28,0,0,1-2.21,2,10,10,0,0,1-2.62,1.33,7.42,7.42,0,0,1-2.87.39,8.67,8.67,0,0,0,2.76-.68,10.57,10.57,0,0,0,2.39-1.5,13.37,13.37,0,0,0,2-2A14.11,14.11,0,0,0,216.1,190l.55-1,.28,1.14a29.56,29.56,0,0,0,1.07,3.62,11.44,11.44,0,0,0,1.72,3.22,3.21,3.21,0,0,0,2.76,1.44c.87-.1,1.09-1.49,1.14-2.69a37.06,37.06,0,0,0-.08-3.79c-.08-1.27-.17-2.54-.33-3.8A24.73,24.73,0,0,0,221.38,180.7Z" style="fill:#263238"></path><path d="M199.81,191.39l.51,32.68s-22.55,2.36-37.95-3.34c-6.35-2.35-20.88-26.27-26.25-38.19s-3-22,11.87-9.11,25.45,23.11,26.74,23.5S199.81,191.39,199.81,191.39Z" style="fill:#92E3A9"></path><path d="M199.81,191.39l.51,32.68s-22.55,2.36-37.95-3.34c-6.35-2.35-20.88-26.27-26.25-38.19s-3-22,11.87-9.11,25.45,23.11,26.74,23.5S199.81,191.39,199.81,191.39Z" style="opacity:0.4"></path><path d="M193.32,195.19a63.89,63.89,0,0,0-.42,6.49c-.1,2.24-.14,4.49-.18,6.73s.08,11.23.12,13.47a.07.07,0,1,0,.15,0c.11-2.24.54-11.14.57-13.34s.08-4.41.05-6.61a65.6,65.6,0,0,0-.2-6.73S193.33,195.13,193.32,195.19Z" style="fill:#263238"></path><path d="M154.07,212.62a182.11,182.11,0,0,1-17.95-30.08c-3.42-7.61-3.72-14.48.39-15.11h.38Z" style="opacity:0.1"></path><path d="M139.5,244.43c-1.17.83-56.19-12.54-56.42-13a11.92,11.92,0,0,1,.82-8.33c7.6-15.83,30-51.64,42.75-58,3.48-1.73,12.23,1.82,14,4.32,1.12,1.57,2.46,10.63,3.23,18,1.26,12-.15,41.72-1.88,52.84A6.65,6.65,0,0,1,139.5,244.43Z" style="fill:#92E3A9"></path><g style="opacity:0.4"><path d="M139.5,244.43c-1.17.83-56.19-12.54-56.42-13a11.92,11.92,0,0,1,.82-8.33c7.6-15.83,30-51.64,42.75-58,3.48-1.73,12.23,1.82,14,4.32,1.12,1.57,2.46,10.63,3.23,18,1.26,12-.15,41.72-1.88,52.84A6.65,6.65,0,0,1,139.5,244.43Z"></path></g><path d="M118,186.66c0,8.13,4,43.07,7.86,48.48,6.9,9.81,40.46,21,48.23,23.09,3.39.9,12.4-26.38,8.85-27.6-2.39-.82-34.22-8-36.4-9.73s-12.17-25.18-16.35-38C126.19,170.7,118,169.42,118,186.66Z" style="fill:#eb9481"></path><path d="M214,236.74a4.29,4.29,0,0,1-2,4.48,6.36,6.36,0,0,1,1.82,3.93c.1,2.62-4,3.93-4,3.93a7.81,7.81,0,0,1,1.26,4.45c-.15,2.52-4.07,4.43-4.07,4.43a6.87,6.87,0,0,1-1.35,4.61c-2.79,3.43-9.5,2.59-13.76,2.11S176,258.81,173.72,258l2.9-27.41s19.75-3.25,24.68-2C205.46,229.72,213.27,233.48,214,236.74Z" style="fill:#eb9481"></path><path d="M211.87,240.76c-4.15-2.22-8.72-3.08-13.23-4.21-.1,0-.14.14,0,.16,4.5,1.07,8.73,3,13.18,4.26A.12.12,0,0,0,211.87,240.76Z" style="fill:#263238"></path><path d="M209.82,248.71a12.17,12.17,0,0,0-3.09-.83c-1.12-.22-2.23-.42-3.35-.6-2.24-.37-4.5-.68-6.75-.93-.1,0-.15.14,0,.16,2.23.37,4.46.77,6.68,1.23,1.11.23,2.21.47,3.32.72a14.14,14.14,0,0,0,3.16.55A.16.16,0,0,0,209.82,248.71Z" style="fill:#263238"></path><path d="M207,257.94a8.67,8.67,0,0,0-2.82-.6l-3.08-.45c-2-.32-4.09-.63-6.12-1-.1,0-.14.13,0,.15,2.07.4,4.12.83,6.19,1.21l3.05.55A7.88,7.88,0,0,0,207,258,.05.05,0,0,0,207,257.94Z" style="fill:#263238"></path><path d="M177.37,228.57l-4.86,31.36s-37.36-11.85-48.11-24.27C120,230.54,116,198.52,117,185.49s7.61-19.52,14.44-1,13.54,34.75,14.81,35.17S177.37,228.57,177.37,228.57Z" style="fill:#92E3A9"></path><path d="M177.37,228.57l-4.86,31.36s-37.36-11.85-48.11-24.27C120,230.54,116,198.52,117,185.49s7.61-19.52,14.44-1,13.54,34.75,14.81,35.17S177.37,228.57,177.37,228.57Z" style="opacity:0.4"></path><path d="M134.67,243.61c-2.65-1.65-9-6.06-10.74-8.59a12.29,12.29,0,0,1-1.67-4.39q-.69-2.72-1.29-5.44a151.64,151.64,0,0,1-3.06-21.41q-.43-6.1-.36-12.24s-.1,0-.1,0c-.24,3.32-.33,6.63-.29,9.94-.08-.48-.16-.95-.22-1.43-.19-1.3-.34-2.61-.42-3.93,0-.06-.11-.05-.11,0a26.88,26.88,0,0,0,.32,4c.11.74.27,1.46.44,2.18q.12,5.73.77,11.43c.43,3.73,1,7.44,1.79,11.12.38,1.79.8,3.58,1.27,5.35a19,19,0,0,0,1.82,5c1.78,2.92,8.61,7,11.77,8.5C134.66,243.77,134.74,243.66,134.67,243.61Z" style="fill:#263238"></path><path d="M146.9,219.61c-1.16-.11-1.69-1.84-2.1-2.73l-1.59-3.44c-1-2.26-2-4.57-2.94-6.87-.78-1.88-1.51-3.78-2.25-5.69-.28-1.22-.55-2.44-.86-3.65,0-.08-.14,0-.13,0,.18.85.38,1.7.58,2.54-.93-2.43-1.85-4.86-2.82-7.28,0-.06-.11,0-.09,0q1.8,6,4,11.84a97,97,0,0,0,4.91,11.44,29.58,29.58,0,0,0,1.58,2.8,2.29,2.29,0,0,0,1.72,1.13C147,219.78,147,219.62,146.9,219.61Z" style="fill:#263238"></path><path d="M171.34,229.31c-.64,2.05-1,4.24-1.43,6.35s-.83,4.41-1.23,6.62-1.67,11.1-2,13.32c0,.1.13.12.15,0,.46-2.2,2.27-10.92,2.65-13.09s.77-4.33,1.09-6.51a65.76,65.76,0,0,0,.85-6.69S171.36,229.25,171.34,229.31Z" style="fill:#263238"></path><path d="M135.45,177.41c-2.5-.82-5.87-7.37-6.4-12a68.4,68.4,0,0,1,3.18-6.11c1-2,2.11-4.16,3-6.24L147,161.57a35.87,35.87,0,0,0-4.53,7.47,5.52,5.52,0,0,0-.26.89,1.13,1.13,0,0,1,0,.15C141.73,171.81,139.37,178.7,135.45,177.41Z" style="fill:#eb9481"></path><path d="M133.56,156.67c0,3.39,1.31,9,8.86,12.37a36.24,36.24,0,0,1,4.53-7.48l-11.76-8.5C134.71,154.25,134.14,155.47,133.56,156.67Z" style="fill:#263238"></path><path d="M134.18,137.52c-2.25,4.71-1.81,19.39,1.23,23.11,4.4,5.38,12.67,7.09,17.52,1.56,4.71-5.37,3.78-24.49.29-28C148.09,129.08,137.52,130.55,134.18,137.52Z" style="fill:#eb9481"></path><path d="M146,148s-.08,0-.07.1c.09,1,0,2.2-.88,2.59a0,0,0,0,0,0,.06C146.15,150.48,146.22,148.91,146,148Z" style="fill:#263238"></path><path d="M145,147c-1.65,0-1.58,3.27-.06,3.3S146.38,147,145,147Z" style="fill:#263238"></path><path d="M151.87,147.75s.08.05.08.09c0,1,.13,2.2,1.06,2.53,0,0,0,.06,0,0C151.87,150.28,151.69,148.72,151.87,147.75Z" style="fill:#263238"></path><path d="M152.77,146.67c1.64-.14,1.81,3.15.29,3.29S151.39,146.8,152.77,146.67Z" style="fill:#263238"></path><path d="M145.6,146.61a11.38,11.38,0,0,1-1.29-.41,2.13,2.13,0,0,1-1.24-.66.69.69,0,0,1,.08-.85,1.73,1.73,0,0,1,1.73-.24,2.55,2.55,0,0,1,1.51,1.05A.74.74,0,0,1,145.6,146.61Z" style="fill:#263238"></path><path d="M154.31,143.56a12.18,12.18,0,0,1-1.35.05,2.21,2.21,0,0,1-1.39-.21.7.7,0,0,1-.21-.83,1.73,1.73,0,0,1,1.56-.8,2.54,2.54,0,0,1,1.77.48A.75.75,0,0,1,154.31,143.56Z" style="fill:#263238"></path><path d="M143.54,158.47c.25.23.5.55.87.57a2.76,2.76,0,0,0,1.08-.29,0,0,0,0,1,0,.05,1.38,1.38,0,0,1-1.27.59,1.09,1.09,0,0,1-.83-.87C143.43,158.46,143.5,158.44,143.54,158.47Z" style="fill:#263238"></path><path d="M145.66,154.3a3.5,3.5,0,0,0,2.39,1.49,4.5,4.5,0,0,0,1.27,0,1,1,0,0,0,.24,0l.22-.05a.24.24,0,0,0,.2-.23h0a.41.41,0,0,0,0-.11h0v-.09c0-.8-.11-2-.11-2,.29.14,1.79.76,1.76.35a53.84,53.84,0,0,0-1.7-10.6.1.1,0,0,0-.19,0c.17,3.31.92,6.57,1.15,9.89a6.38,6.38,0,0,0-1.68-.45c-.11,0,.27,2.33.24,2.68a.1.1,0,0,1,0,0,4.85,4.85,0,0,1-3.67-1C145.67,154.15,145.59,154.22,145.66,154.3Z" style="fill:#263238"></path><path d="M148.73,155.61A4.16,4.16,0,0,1,147,156.8a1.89,1.89,0,0,1-1.13,0c-.8-.26-.78-1-.6-1.64a5,5,0,0,1,.42-1A5.39,5.39,0,0,0,148.73,155.61Z" style="fill:#263238"></path><path d="M147,156.8a1.89,1.89,0,0,1-1.13,0c-.8-.26-.78-1-.6-1.64A1.92,1.92,0,0,1,147,156.8Z" style="fill:#f291b8"></path><path d="M132.07,146.58l-.08,2.18s3.78.58,4.29.78,5,2.77,7.45,2.76,4.76-.49,5.23-1.05,1.2-1.28,1.69-1.13c.72.22.73,1,1.4,1.21a4.14,4.14,0,0,0,3.27-.45,5.72,5.72,0,0,0,1.32-1.49,28.83,28.83,0,0,0,0-4.36,9.14,9.14,0,0,0-3.91-.92c-.76,0-2.06,1.09-2.65,1.06-1.8-.07-4-1.28-6.09-1.18a11.37,11.37,0,0,0-3.81,1,33,33,0,0,1-3.84,1.75C135.64,146.74,132.07,146.58,132.07,146.58Zm19.25,1.51a3.06,3.06,0,0,1,2.46-2.6c1.05-.23,2.22,1.15,2.06,2.25a3,3,0,0,1-2.3,2.66C151.94,150.73,151.24,149.23,151.32,148.09Zm-10.77,0c.15-1.14,1.92-2.4,3.58-2.44s3.53,1.11,3.49,2.26a3,3,0,0,1-3.12,3C142,151,140.41,149.28,140.55,148.13Z" style="fill:#263238"></path><path d="M132.69,147.62c2.63,0,6.08-7.89,6.08-7.89s-1,3.47-.29,3.56,4.61-3.9,5.83-7.21a27.6,27.6,0,0,0,5.37,4.69c2.84,1.76,6.32,2.47,6.46,1.95.43-1.57.1-6-1.63-8.06a11.45,11.45,0,0,0-10.64-4.32,11.08,11.08,0,0,0-9.2,5.78C133.25,138.43,131.72,147.64,132.69,147.62Z" style="fill:#263238"></path><path d="M135.47,149.62s-2.63-5.06-4.88-4.18-.7,7.91,1.65,9.16a2.54,2.54,0,0,0,3.54-.91Z" style="fill:#eb9481"></path><path d="M131.08,147.45s-.05,0,0,.06a6.4,6.4,0,0,1,2.76,4.4,1.39,1.39,0,0,0-2-.65c-.05,0,0,.1,0,.1a1.55,1.55,0,0,1,1.63.76,6.94,6.94,0,0,1,.63,1.48c.07.16.36.12.32-.07v0C134.73,151.29,133.42,148,131.08,147.45Z" style="fill:#263238"></path><path d="M150.35,131.68a20.11,20.11,0,0,0-5.2-3c-2.1-.77-6.48-2.21-10.57,0-3.4,1.81-4.29,6.51-4.55,7.44s-1.16,6.71.58,8.56,4.17-7.76,8.16-10.21S150.35,131.68,150.35,131.68Z" style="fill:#92E3A9"></path><path d="M150.35,131.68a20.11,20.11,0,0,0-5.2-3c-2.1-.77-6.48-2.21-10.57,0-3.4,1.81-4.29,6.51-4.55,7.44s-1.16,6.71.58,8.56,4.17-7.76,8.16-10.21S150.35,131.68,150.35,131.68Z" style="opacity:0.4"></path><path d="M150.35,131.68s-7.59.35-11.57,2.8-6.43,12.05-8.17,10.21a4.62,4.62,0,0,1-1-3.41c1.08-2.72,3.23-6.84,6.29-9.32,2.86-2.33,7-2.89,11.14-2.41A22.51,22.51,0,0,1,150.35,131.68Z" style="opacity:0.1"></path><path d="M129.85,150.55c.78-2.53,5-8.81,8.64-12.13s12.26-3.75,13.38-3.42c2.7.79,3.43,1.83,3.93,1.69s-1.86-2.86-2.52-3.5-2.49-2.2-3.68-2.45-8.71-1.22-12.1,1.3-9.2,10.41-9,12.81c0,.58.67,1.09.72,1.91.07,1.07,0,2.28.16,3.05S129.78,150.77,129.85,150.55Z" style="fill:#92E3A9"></path><path d="M129.85,150.55c.78-2.53,5-8.81,8.64-12.13s12.26-3.75,13.38-3.42c2.7.79,3.43,1.83,3.93,1.69s-1.86-2.86-2.52-3.5-2.49-2.2-3.68-2.45-8.71-1.22-12.1,1.3-9.2,10.41-9,12.81c0,.58.67,1.09.72,1.91.07,1.07,0,2.28.16,3.05S129.78,150.77,129.85,150.55Z" style="opacity:0.4"></path><path d="M139.54,136.8a12.69,12.69,0,0,1-1.48-1.72,9.56,9.56,0,0,1-1.15-2,0,0,0,1,0-.08,0,7.63,7.63,0,0,0,1,2.14,6.2,6.2,0,0,0,1.66,1.65A.08.08,0,0,0,139.54,136.8Z" style="fill:#263238"></path><path d="M130.42,148c0-.2-.11-.39-.16-.59a3.26,3.26,0,0,1-.09-.69,5.82,5.82,0,0,0,0-1.32,4.47,4.47,0,0,0-.4-1,1.8,1.8,0,0,1-.27-1.17c0-.05-.07-.07-.08,0a4.39,4.39,0,0,0,.4,2.19,8.4,8.4,0,0,1,0,1.42,2.15,2.15,0,0,0,.43,1.23C130.33,148.08,130.43,148,130.42,148Z" style="fill:#263238"></path><path d="M132,145.4a10.09,10.09,0,0,1-.52-1,8.53,8.53,0,0,1-.33-1.09c-.09-.37-.15-.74-.22-1.1s-.24-.86-.32-1.29c0-.06-.09,0-.08,0,.07.45.07.92.13,1.37a9.77,9.77,0,0,0,.25,1.17,5.87,5.87,0,0,0,.39,1.06,2.92,2.92,0,0,0,.66.93S132,145.42,132,145.4Z" style="fill:#263238"></path><path d="M133.47,143.1a7.38,7.38,0,0,1-1-1.91c-.24-.66-.44-1.35-.63-2,0,0-.09,0-.09,0a8.92,8.92,0,0,0,.44,2.16,4.27,4.27,0,0,0,.47,1,4.84,4.84,0,0,0,.77.86S133.5,143.14,133.47,143.1Z" style="fill:#263238"></path><path d="M135,140.93a2.56,2.56,0,0,1-.52-.85c-.16-.34-.3-.68-.44-1l-.4-1a2.42,2.42,0,0,1-.25-1.05,0,0,0,0,0-.08,0,2.57,2.57,0,0,0,.06,1.07,7.51,7.51,0,0,0,.35,1.14,9.41,9.41,0,0,0,.51,1.06,1.67,1.67,0,0,0,.7.76C135,141.05,135.1,141,135,140.93Z" style="fill:#263238"></path><path d="M136.48,138c-.18-.29-.36-.57-.52-.88s-.31-.61-.45-.92-.31-.65-.43-1a0,0,0,0,0-.09,0,7.53,7.53,0,0,0,.26,1,8.56,8.56,0,0,0,.43,1,8.24,8.24,0,0,0,.54.9,2.62,2.62,0,0,0,.7.78.06.06,0,0,0,.09-.07A5.19,5.19,0,0,0,136.48,138Z" style="fill:#263238"></path><path d="M141.85,135.79c-.18-.37-.36-.74-.58-1.1a9.18,9.18,0,0,0-.72-1,11.1,11.1,0,0,0-1.68-1.81,0,0,0,0,0-.07.06c1,1.32,2,2.6,3,3.94C141.8,135.88,141.87,135.84,141.85,135.79Z" style="fill:#263238"></path><path d="M143.91,134a5.4,5.4,0,0,0-.68-1,12.22,12.22,0,0,0-1.92-1.74,0,0,0,0,0-.06.07c.56.59,1.14,1.18,1.67,1.81a9.93,9.93,0,0,1,.74,1c.23.34.38.71.59,1.06,0,0,.06,0,.06,0A3.08,3.08,0,0,0,143.91,134Z" style="fill:#263238"></path><path d="M146.29,133.44a5.91,5.91,0,0,0-.62-1,6.73,6.73,0,0,0-1.62-1.53s-.09,0-.05.06a14.81,14.81,0,0,1,1.47,1.7c.22.3.43.62.64.93s.36.68.6,1c0,0,0,0,0,0A6,6,0,0,0,146.29,133.44Z" style="fill:#263238"></path><path d="M148.13,132.51c-.22-.28-.45-.55-.69-.82a3.46,3.46,0,0,0-.77-.71s-.09,0-.06.07c.43.54.85,1.09,1.27,1.64a9.77,9.77,0,0,1,.88,1.7s.05,0,.05,0A3.41,3.41,0,0,0,148.13,132.51Z" style="fill:#263238"></path><path d="M150.16,132.55a5.28,5.28,0,0,0-1.47-1.47s-.09,0-.05.07a7,7,0,0,1,1.29,1.53,9.42,9.42,0,0,1,.87,1.81s.07,0,.06,0A4.33,4.33,0,0,0,150.16,132.55Z" style="fill:#263238"></path><path d="M152.42,134.28a3.19,3.19,0,0,0-.13-.44,4.27,4.27,0,0,0-.41-.83,9.32,9.32,0,0,0-1.2-1.46c0-.05-.1,0-.06.06a7.52,7.52,0,0,1,1.1,1.47,6,6,0,0,1,.39.81,3.45,3.45,0,0,1,.14.42c.05.13.07.29.13.41s.08,0,.08,0A1.05,1.05,0,0,0,152.42,134.28Z" style="fill:#263238"></path><path d="M153.94,134.78a5.52,5.52,0,0,0-.34-.69,6.4,6.4,0,0,0-.42-.64c-.15-.21-.32-.41-.47-.62s-.1,0-.06,0a4.62,4.62,0,0,1,.41.67l.36.65.36.65c.12.22.21.46.35.67a0,0,0,0,0,.06,0A3.32,3.32,0,0,0,153.94,134.78Z" style="fill:#263238"></path><path d="M141.44,173.93a33.1,33.1,0,0,0,2.2-4.52c.06-.71-3.21-1.33-5.52-3.09s-6.36-6.12-6.89-6.28-2.51,4.82-2.51,4.82,2.16,11.91,6.72,13.1S141.44,173.93,141.44,173.93Z" style="fill:#92E3A9"></path><path d="M141.44,173.93a33.1,33.1,0,0,0,2.2-4.52c.06-.71-3.21-1.33-5.52-3.09s-6.36-6.12-6.89-6.28-2.51,4.82-2.51,4.82,2.16,11.91,6.72,13.1S141.44,173.93,141.44,173.93Z" style="opacity:0.4"></path><path d="M142.58,169.52a2.87,2.87,0,0,1-.33,1.22,3.05,3.05,0,0,1-.78,1,2.91,2.91,0,0,1,.33-1.22A3.05,3.05,0,0,1,142.58,169.52Z" style="fill:#263238"></path><path d="M140.52,168.64a2.88,2.88,0,0,1-.34,1.22,2.93,2.93,0,0,1-.78,1,3.22,3.22,0,0,1,1.12-2.21Z" style="fill:#263238"></path><path d="M138.74,167.53a2.88,2.88,0,0,1-.34,1.21,2.83,2.83,0,0,1-.78,1,2.88,2.88,0,0,1,.34-1.21A2.83,2.83,0,0,1,138.74,167.53Z" style="fill:#263238"></path><path d="M137,166.3a3.22,3.22,0,0,1-1.12,2.21,2.88,2.88,0,0,1,.34-1.22A2.93,2.93,0,0,1,137,166.3Z" style="fill:#263238"></path><path d="M135.17,164.84a3,3,0,0,1-.34,1.21,2.83,2.83,0,0,1-.78,1,3,3,0,0,1,.33-1.21A3,3,0,0,1,135.17,164.84Z" style="fill:#263238"></path><path d="M133.53,163.42a3,3,0,0,1-.33,1.21,2.77,2.77,0,0,1-.79,1,3,3,0,0,1,.34-1.21A3,3,0,0,1,133.53,163.42Z" style="fill:#263238"></path><path d="M131.9,161.85a3.12,3.12,0,0,1-.34,1.22,2.93,2.93,0,0,1-.78,1,3,3,0,0,1,.33-1.22A3.09,3.09,0,0,1,131.9,161.85Z" style="fill:#263238"></path></g><g id="freepik--Sign--inject-20"><polygon points="638.65 89.23 581.91 187.51 695.4 187.51 638.65 89.23" style="fill:#92E3A9"></polygon><path d="M684.8,181.39H592.51l46.15-79.92Zm-88.83-2h85.36l-42.67-73.92Z" style="fill:#263238"></path><polygon points="634.15 125.73 643.15 125.73 642.55 158.89 634.76 158.89 634.15 125.73" style="fill:#263238"></polygon><rect x="634.76" y="163.05" width="7.78" height="7.78" style="fill:#263238"></rect></g></svg>